<?xml version="1.0" encoding="UTF-8"?><svg xmlns="http://www.w3.org/2000/svg" xmlns:xlink="http://www.w3.org/1999/xlink" viewBox="0 0 1739.55 647.51"><defs><style>.cls-1{mask:url(#mask);}.cls-2{fill:none;stroke:#3c6496;stroke-miterlimit:10;stroke-width:10px;}.cls-3{fill:#f0b996;fill-rule:evenodd;}.cls-3,.cls-4,.cls-5{stroke-width:0px;}.cls-6{filter:url(#luminosity-invert-noclip);}.cls-4{fill:#3c6496;}.cls-5{fill:#fff;}</style><filter id="luminosity-invert-noclip" x="78.67" y="68.96" width="432.14" height="432.14" color-interpolation-filters="sRGB" filterUnits="userSpaceOnUse"><feColorMatrix result="cm" values="-1 0 0 0 1 0 -1 0 0 1 0 0 -1 0 1 0 0 0 1 0"/><feFlood flood-color="#fff" result="bg"/><feBlend in="cm" in2="bg"/></filter><mask id="mask" x="78.67" y="68.96" width="432.14" height="432.14" maskUnits="userSpaceOnUse"><g class="cls-6"><path class="cls-5" d="m311.82,213.26c-12.61,2.27-108.99,38.65-153.66,104.63-44.67,65.97,20.27,105.46,88.42,93.43,44.74-7.89,56.46-14.37,72.63-23.16,24.21-13.16,41.7-26.32,62.31-49.5,38.44-43.23,78.7-123.66-6.52-149.08-37.73-10.19-155.02-4.95-73.5-43.79,12-5.18,20.67-5.75,26.8-4.95,26.56,3.49,5.12,51,2.6,55.15-1.23,2.03-3.02,5.05-3.92,7.32-.95,2.4-.9,3.97,1.86,2.68,5.36-2.51,14.58-21.05,16.37-27.34,32.53-82.38-116.48-25.3-76.87,1.69s155.6.73,138.61,69.51c-59.52,186.5-362.48,163.55-164.41,24.79,19.27-13.5,43.32-28.13,72.87-43.75,8.6-4.55,9.02-19.91-3.6-17.65Z"/></g></mask></defs><g id="Layer_1"><rect class="cls-2" x="118.22" y="108.22" width="353.55" height="353.55" rx="50" ry="50" transform="translate(-115.12 292.07) rotate(-45)"/><g class="cls-1"><path class="cls-3" d="m496.22,249.67c19.45,19.45,19.45,51.27,0,70.71l-166.13,166.13c-19.45,19.45-51.27,19.45-70.71,0l-166.13-166.13c-19.45-19.45-19.45-51.27,0-70.71l166.13-166.13c19.45-19.45,51.27-19.45,70.71,0l166.13,166.13Z"/></g></g><g id="Layer_3"><path class="cls-4" d="m575.58,318.27c12.48,7.68,30.72,14.08,49.92,14.08,28.48,0,45.12-15.04,45.12-36.8,0-20.16-11.52-31.68-40.64-42.88-35.2-12.48-56.96-30.72-56.96-61.12,0-33.6,27.84-58.56,69.76-58.56,22.08,0,38.08,5.12,47.68,10.56l-7.68,22.72c-7.04-3.84-21.44-10.24-40.96-10.24-29.44,0-40.64,17.6-40.64,32.32,0,20.16,13.12,30.08,42.88,41.6,36.48,14.08,55.04,31.68,55.04,63.36,0,33.28-24.64,62.08-75.52,62.08-20.8,0-43.52-6.08-55.04-13.76l7.04-23.36Z"/><path class="cls-4" d="m878.3,273.47c0,57.28-39.68,82.24-77.12,82.24-41.92,0-74.24-30.72-74.24-79.68,0-51.84,33.92-82.24,76.8-82.24s74.56,32.32,74.56,79.68Zm-122.88,1.6c0,33.92,19.52,59.52,47.04,59.52s47.04-25.28,47.04-60.16c0-26.24-13.12-59.52-46.4-59.52s-47.68,30.72-47.68,60.16Z"/><path class="cls-4" d="m913.81,245.62c0-18.24-.32-33.92-1.28-48.32h24.64l.96,30.4h1.28c7.04-20.8,24-33.92,42.88-33.92,3.2,0,5.44.32,8,.96v26.56c-2.88-.64-5.76-.96-9.6-.96-19.84,0-33.92,15.04-37.76,36.16-.64,3.84-1.28,8.32-1.28,13.12v82.56h-27.84v-106.56Z"/><path class="cls-4" d="m1060.05,152.82v44.48h40.32v21.44h-40.32v83.52c0,19.2,5.44,30.08,21.12,30.08,7.36,0,12.8-.96,16.32-1.92l1.28,21.12c-5.44,2.24-14.08,3.84-24.96,3.84-13.12,0-23.68-4.16-30.4-11.84-8-8.32-10.88-22.08-10.88-40.32v-84.48h-24v-21.44h24v-37.12l27.52-7.36Z"/><path class="cls-4" d="m1163.41,153.78c.32,9.6-6.72,17.28-17.92,17.28-9.92,0-16.96-7.68-16.96-17.28s7.36-17.6,17.6-17.6,17.28,7.68,17.28,17.6Zm-31.36,198.4v-154.88h28.16v154.88h-28.16Z"/><path class="cls-4" d="m1340.69,124.98v187.2c0,13.76.32,29.44,1.28,40h-25.28l-1.28-26.88h-.64c-8.64,17.28-27.52,30.4-52.8,30.4-37.44,0-66.24-31.68-66.24-78.72-.32-51.52,31.68-83.2,69.44-83.2,23.68,0,39.68,11.2,46.72,23.68h.64v-92.48h28.16Zm-28.16,135.36c0-3.52-.32-8.32-1.28-11.84-4.16-17.92-19.52-32.64-40.64-32.64-29.12,0-46.4,25.6-46.4,59.84,0,31.36,15.36,57.28,45.76,57.28,18.88,0,36.16-12.48,41.28-33.6.96-3.84,1.28-7.68,1.28-12.16v-26.88Z"/><path class="cls-4" d="m1473.16,352.19l-2.24-19.52h-.96c-8.64,12.16-25.28,23.04-47.36,23.04-31.36,0-47.36-22.08-47.36-44.48,0-37.44,33.28-57.92,93.12-57.6v-3.2c0-12.8-3.52-35.84-35.2-35.84-14.4,0-29.44,4.48-40.32,11.52l-6.4-18.56c12.8-8.32,31.36-13.76,50.88-13.76,47.36,0,58.88,32.32,58.88,63.36v57.92c0,13.44.64,26.56,2.56,37.12h-25.6Zm-4.16-79.04c-30.72-.64-65.6,4.8-65.6,34.88,0,18.24,12.16,26.88,26.56,26.88,20.16,0,32.96-12.8,37.44-25.92.96-2.88,1.6-6.08,1.6-8.96v-26.88Z"/><path class="cls-4" d="m599.06,486.61c-1.89.98-6.07,2.3-11.4,2.3-11.97,0-19.76-8.12-19.76-20.25s8.36-21.07,21.32-21.07c4.26,0,8.04,1.07,10,2.05l-1.64,5.58c-1.72-.98-4.43-1.89-8.36-1.89-9.1,0-14.02,6.72-14.02,15.01,0,9.18,5.9,14.84,13.78,14.84,4.1,0,6.81-1.07,8.86-1.97l1.23,5.41Z"/><path class="cls-4" d="m642.93,467.91c0,14.68-10.17,21.07-19.76,21.07-10.74,0-19.02-7.87-19.02-20.42,0-13.28,8.69-21.07,19.68-21.07s19.11,8.28,19.11,20.42Zm-31.49.41c0,8.69,5,15.25,12.05,15.25s12.05-6.48,12.05-15.42c0-6.72-3.36-15.25-11.89-15.25s-12.22,7.87-12.22,15.42Z"/><path class="cls-4" d="m652.03,459.14c0-4.1-.08-7.46-.33-10.74h6.31l.33,6.4h.25c2.21-3.77,5.9-7.3,12.46-7.3,5.41,0,9.51,3.28,11.23,7.95h.16c1.23-2.21,2.79-3.94,4.43-5.17,2.38-1.8,5-2.79,8.77-2.79,5.25,0,13.04,3.44,13.04,17.22v23.37h-7.05v-22.47c0-7.63-2.79-12.22-8.61-12.22-4.1,0-7.3,3.03-8.53,6.56-.33.98-.57,2.3-.57,3.61v24.52h-7.05v-23.78c0-6.31-2.79-10.91-8.28-10.91-4.51,0-7.79,3.61-8.94,7.22-.41,1.07-.57,2.3-.57,3.53v23.94h-7.05v-28.95Z"/><path class="cls-4" d="m720.42,459.14c0-4.1-.08-7.46-.33-10.74h6.31l.33,6.4h.25c2.21-3.77,5.9-7.3,12.46-7.3,5.41,0,9.51,3.28,11.23,7.95h.16c1.23-2.21,2.79-3.94,4.43-5.17,2.38-1.8,5-2.79,8.77-2.79,5.25,0,13.04,3.44,13.04,17.22v23.37h-7.05v-22.47c0-7.63-2.79-12.22-8.61-12.22-4.1,0-7.3,3.03-8.53,6.56-.33.98-.57,2.3-.57,3.61v24.52h-7.05v-23.78c0-6.31-2.79-10.91-8.28-10.91-4.51,0-7.79,3.61-8.94,7.22-.41,1.07-.57,2.3-.57,3.53v23.94h-7.05v-28.95Z"/><path class="cls-4" d="m822.02,477.26c0,4.1.08,7.71.33,10.82h-6.4l-.41-6.48h-.16c-1.89,3.2-6.07,7.38-13.12,7.38-6.23,0-13.69-3.44-13.69-17.38v-23.21h7.22v21.98c0,7.54,2.3,12.63,8.86,12.63,4.84,0,8.2-3.36,9.51-6.56.41-1.07.66-2.38.66-3.69v-24.35h7.22v28.86Z"/><path class="cls-4" d="m833.99,459.14c0-4.1-.08-7.46-.33-10.74h6.4l.41,6.56h.16c1.97-3.77,6.56-7.46,13.12-7.46,5.49,0,14.02,3.28,14.02,16.89v23.7h-7.22v-22.88c0-6.4-2.38-11.73-9.18-11.73-4.76,0-8.45,3.36-9.68,7.38-.33.9-.49,2.13-.49,3.36v23.86h-7.22v-28.95Z"/><path class="cls-4" d="m887.53,437.24c.08,2.46-1.72,4.43-4.59,4.43-2.54,0-4.35-1.97-4.35-4.43s1.89-4.51,4.51-4.51,4.43,1.97,4.43,4.51Zm-8.04,50.84v-39.69h7.22v39.69h-7.22Z"/><path class="cls-4" d="m907.38,437v11.4h10.33v5.49h-10.33v21.4c0,4.92,1.39,7.71,5.41,7.71,1.89,0,3.28-.25,4.18-.49l.33,5.41c-1.39.57-3.61.98-6.4.98-3.36,0-6.07-1.07-7.79-3.03-2.05-2.13-2.79-5.66-2.79-10.33v-21.65h-6.15v-5.49h6.15v-9.51l7.05-1.89Z"/><path class="cls-4" d="m929.19,448.39l8.69,23.45c.9,2.62,1.89,5.74,2.54,8.12h.16c.74-2.38,1.56-5.41,2.54-8.28l7.87-23.29h7.63l-10.82,28.29c-5.17,13.61-8.69,20.58-13.61,24.85-3.53,3.12-7.05,4.35-8.86,4.67l-1.8-6.07c1.8-.57,4.18-1.72,6.31-3.53,1.97-1.56,4.43-4.35,6.07-8.04.33-.74.57-1.31.57-1.72s-.16-.98-.49-1.89l-14.68-36.57h7.87Z"/><path class="cls-4" d="m983.3,488.08v-34.19h-5.58v-5.49h5.58v-1.89c0-5.58,1.23-10.66,4.59-13.86,2.71-2.62,6.31-3.69,9.68-3.69,2.54,0,4.76.57,6.15,1.15l-.98,5.58c-1.07-.49-2.54-.9-4.59-.9-6.15,0-7.71,5.41-7.71,11.48v2.13h9.59v5.49h-9.59v34.19h-7.13Z"/><path class="cls-4" d="m1041.36,467.91c0,14.68-10.17,21.07-19.76,21.07-10.74,0-19.02-7.87-19.02-20.42,0-13.28,8.69-21.07,19.68-21.07s19.11,8.28,19.11,20.42Zm-31.49.41c0,8.69,5,15.25,12.05,15.25s12.05-6.48,12.05-15.42c0-6.72-3.36-15.25-11.89-15.25s-12.22,7.87-12.22,15.42Z"/><path class="cls-4" d="m1050.46,460.78c0-4.67-.08-8.69-.33-12.38h6.31l.25,7.79h.33c1.8-5.33,6.15-8.69,10.99-8.69.82,0,1.39.08,2.05.25v6.81c-.74-.16-1.48-.25-2.46-.25-5.08,0-8.69,3.85-9.68,9.27-.16.98-.33,2.13-.33,3.36v21.16h-7.13v-27.31Z"/><path class="cls-4" d="m1103.35,437v11.4h10.33v5.49h-10.33v21.4c0,4.92,1.39,7.71,5.41,7.71,1.89,0,3.28-.25,4.18-.49l.33,5.41c-1.39.57-3.61.98-6.4.98-3.36,0-6.07-1.07-7.79-3.03-2.05-2.13-2.79-5.66-2.79-10.33v-21.65h-6.15v-5.49h6.15v-9.51l7.05-1.89Z"/><path class="cls-4" d="m1121.8,429.86h7.22v24.76h.16c1.15-2.05,2.95-3.85,5.17-5.08,2.13-1.23,4.67-2.05,7.38-2.05,5.33,0,13.86,3.28,13.86,16.97v23.62h-7.22v-22.8c0-6.4-2.38-11.81-9.18-11.81-4.67,0-8.36,3.28-9.68,7.22-.41.98-.49,2.05-.49,3.44v23.94h-7.22v-58.22Z"/><path class="cls-4" d="m1171.33,469.55c.16,9.76,6.4,13.78,13.61,13.78,5.17,0,8.28-.9,10.99-2.05l1.23,5.17c-2.54,1.15-6.89,2.46-13.2,2.46-12.22,0-19.52-8.04-19.52-20.01s7.05-21.4,18.61-21.4c12.96,0,16.4,11.4,16.4,18.7,0,1.48-.16,2.62-.25,3.36h-27.88Zm21.16-5.17c.08-4.59-1.89-11.73-10-11.73-7.3,0-10.5,6.72-11.07,11.73h21.07Z"/><path class="cls-4" d="m1231.24,448.16l4.17,18.1c.96,4.26,1.85,8.58,2.58,12.94h.19c.81-4.3,2.07-8.76,3.21-12.86l5.24-18.18h8.17l4.98,17.72c1.23,4.64,2.35,8.99,3.19,13.32h.18c.63-4.31,1.56-8.68,2.66-13.33l4.43-17.71h9.9l-12.51,39.92h-9.38l-4.78-16.26c-1.21-4.17-2.12-7.93-3.02-12.78h-.16c-.85,4.92-1.86,8.83-3.05,12.77l-5.08,16.26h-9.41l-11.81-39.92h10.29Z"/><path class="cls-4" d="m1308.61,488.08l-.69-4.45h-.24c-2.42,3.15-6.6,5.35-11.76,5.35-8.1,0-12.59-5.79-12.59-11.87,0-10.07,8.98-15.17,23.68-15.11v-.66c0-2.62-1.04-6.99-8.11-6.96-3.91,0-8.01,1.26-10.73,2.98l-2-6.55c3.02-1.83,8.18-3.54,14.47-3.54,12.8,0,16.46,8.07,16.46,16.83v14.38c0,3.63.18,7.15.62,9.62h-9.11Zm-1.34-19.55c-7.12-.09-13.94,1.41-13.94,7.49,0,3.91,2.56,5.75,5.75,5.75,4.03,0,6.93-2.6,7.9-5.52.22-.7.28-1.49.28-2.19v-5.52Z"/><path class="cls-4" d="m1333.3,448.16l7.2,21.4c.79,2.47,1.66,5.52,2.25,7.74h.23c.62-2.24,1.37-5.25,2.12-7.82l6.25-21.32h10.76l-10,27.24c-5.48,14.9-9.18,21.52-13.88,25.67-3.97,3.46-8.08,4.77-10.59,5.1l-2.28-8.5c1.69-.42,3.8-1.33,5.83-2.75,1.92-1.26,4.15-3.62,5.54-6.37.4-.69.63-1.28.63-1.77,0-.44-.11-1.03-.53-1.97l-14.67-36.65h11.13Z"/><path class="cls-4" d="m1422.89,467.73c0,14.68-10.3,21.25-20.51,21.25-11.26,0-19.98-7.77-19.98-20.57s8.63-21.16,20.66-21.16,19.83,8.37,19.83,20.47Zm-30.11.43c0,7.68,3.83,13.49,9.93,13.49s9.81-5.59,9.81-13.62c0-6.27-2.78-13.44-9.74-13.44s-9.99,6.91-9.99,13.57Z"/><path class="cls-4" d="m1466.93,476.12c0,4.74.15,8.71.33,11.96h-8.82l-.49-6.03h-.23c-1.69,2.8-5.63,6.94-12.79,6.94s-13.9-4.37-13.9-17.41v-23.41h10.1v21.72c0,6.63,2.1,10.88,7.45,10.88,4.04,0,6.66-2.82,7.71-5.39.34-.87.54-1.95.54-3.12v-24.09h10.1v27.96Z"/><path class="cls-4" d="m1489.42,436.73v11.43h9.6v7.52h-9.6v17.62c0,4.89,1.3,7.37,5.16,7.37,1.73,0,3.02-.2,3.92-.44l.2,7.68c-1.52.57-4.16,1.04-7.35,1.04-3.71,0-6.8-1.26-8.68-3.29-2.17-2.29-3.16-5.97-3.16-11.2v-18.77h-5.7v-7.52h5.7v-9.04l9.89-2.39Z"/></g></svg>